<svg width="104" height="51" viewBox="0 0 104 51" fill="none" xmlns="http://www.w3.org/2000/svg">
<path d="M33.808 9.344C36.848 9.344 39.504 10.032 41.776 11.408C44.08 12.784 45.856 14.768 47.104 17.36C48.384 19.92 49.024 23.04 49.024 26.72C49.024 30.304 48.368 33.44 47.056 36.128C45.776 38.816 43.984 40.912 41.68 42.416C39.376 43.92 36.736 44.672 33.76 44.672C30.72 44.672 28.048 43.984 25.744 42.608C23.472 41.232 21.696 39.248 20.416 36.656C19.168 34.064 18.544 30.944 18.544 27.296C18.544 23.712 19.2 20.576 20.512 17.888C21.824 15.2 23.616 13.104 25.888 11.6C28.192 10.096 30.832 9.344 33.808 9.344ZM33.616 10.208C31.536 10.208 29.728 10.928 28.192 12.368C26.656 13.808 25.456 15.792 24.592 18.32C23.76 20.848 23.344 23.776 23.344 27.104C23.344 30.496 23.808 33.456 24.736 35.984C25.696 38.48 26.976 40.416 28.576 41.792C30.208 43.136 32 43.808 33.952 43.808C36.032 43.808 37.84 43.088 39.376 41.648C40.912 40.208 42.096 38.224 42.928 35.696C43.792 33.136 44.224 30.208 44.224 26.912C44.224 23.488 43.744 20.528 42.784 18.032C41.856 15.536 40.592 13.616 38.992 12.272C37.392 10.896 35.6 10.208 33.616 10.208ZM69.3861 9.344C72.4261 9.344 75.0821 10.032 77.3541 11.408C79.6581 12.784 81.4341 14.768 82.6821 17.36C83.9621 19.92 84.6021 23.04 84.6021 26.72C84.6021 30.304 83.9461 33.44 82.6341 36.128C81.3541 38.816 79.5621 40.912 77.2581 42.416C74.9541 43.92 72.3141 44.672 69.3381 44.672C66.2981 44.672 63.6261 43.984 61.3221 42.608C59.0501 41.232 57.2741 39.248 55.9941 36.656C54.7461 34.064 54.1221 30.944 54.1221 27.296C54.1221 23.712 54.7781 20.576 56.0901 17.888C57.4021 15.2 59.1941 13.104 61.4661 11.6C63.7701 10.096 66.4101 9.344 69.3861 9.344ZM69.1941 10.208C67.1141 10.208 65.3061 10.928 63.7701 12.368C62.2341 13.808 61.0341 15.792 60.1701 18.32C59.3381 20.848 58.9221 23.776 58.9221 27.104C58.9221 30.496 59.3861 33.456 60.3141 35.984C61.2741 38.48 62.5541 40.416 64.1541 41.792C65.7861 43.136 67.5781 43.808 69.5301 43.808C71.6101 43.808 73.4181 43.088 74.9541 41.648C76.4901 40.208 77.6741 38.224 78.5061 35.696C79.3701 33.136 79.8021 30.208 79.8021 26.912C79.8021 23.488 79.3221 20.528 78.3621 18.032C77.4341 15.536 76.1701 13.616 74.5701 12.272C72.9701 10.896 71.1781 10.208 69.1941 10.208Z" fill="#F9F9F9"/>
<path d="M2.008 28.008C2.344 28.024 2.784 28.04 3.328 28.056C3.872 28.072 4.408 28.08 4.936 28.08C5.688 28.08 6.408 28.072 7.096 28.056C7.784 28.04 8.272 28.032 8.56 28.032C10.24 28.032 11.504 28.384 12.352 29.088C13.2 29.792 13.624 30.696 13.624 31.8C13.624 32.36 13.504 32.912 13.264 33.456C13.04 33.984 12.656 34.472 12.112 34.92C11.584 35.352 10.872 35.704 9.976 35.976V36.024C11.24 36.184 12.224 36.488 12.928 36.936C13.648 37.368 14.152 37.88 14.44 38.472C14.728 39.064 14.872 39.688 14.872 40.344C14.872 41.256 14.64 42.064 14.176 42.768C13.728 43.456 13.072 44 12.208 44.4C11.344 44.8 10.312 45 9.112 45C8.76 45 8.232 44.992 7.528 44.976C6.824 44.944 5.976 44.928 4.984 44.928C4.424 44.928 3.872 44.936 3.328 44.952C2.784 44.952 2.344 44.968 2.008 45V44.52C2.552 44.488 2.96 44.424 3.232 44.328C3.52 44.232 3.712 44.04 3.808 43.752C3.904 43.464 3.952 43.032 3.952 42.456V30.552C3.952 29.96 3.904 29.528 3.808 29.256C3.712 28.968 3.52 28.776 3.232 28.68C2.96 28.568 2.552 28.504 2.008 28.488V28.008ZM7.96 28.488C7.224 28.488 6.744 28.624 6.52 28.896C6.296 29.168 6.184 29.72 6.184 30.552V42.456C6.184 43.016 6.232 43.44 6.328 43.728C6.424 44.016 6.6 44.208 6.856 44.304C7.112 44.4 7.488 44.448 7.984 44.448C9.552 44.448 10.688 44.088 11.392 43.368C12.112 42.632 12.472 41.592 12.472 40.248C12.472 39.016 12.136 38.064 11.464 37.392C10.808 36.72 9.72 36.384 8.2 36.384H5.728C5.728 36.384 5.728 36.32 5.728 36.192C5.728 36.048 5.728 35.976 5.728 35.976H7.792C8.736 35.976 9.464 35.8 9.976 35.448C10.488 35.08 10.84 34.6 11.032 34.008C11.224 33.4 11.32 32.752 11.32 32.064C11.32 30.88 11.056 29.992 10.528 29.4C10.016 28.792 9.16 28.488 7.96 28.488Z" fill="#F9F9F9"/>
<path d="M102.76 28.008V28.488C102.264 28.552 101.784 28.712 101.32 28.968C100.856 29.224 100.392 29.648 99.928 30.24L95.296 36.168L95.824 34.992L101.584 43.056C101.856 43.456 102.152 43.768 102.472 43.992C102.792 44.216 103.2 44.392 103.696 44.52V45C103.312 44.968 102.832 44.952 102.256 44.952C101.696 44.936 101.216 44.928 100.816 44.928C100.544 44.928 100.208 44.936 99.808 44.952C99.424 44.952 98.936 44.968 98.344 45V44.52C98.888 44.488 99.232 44.392 99.376 44.232C99.52 44.072 99.464 43.808 99.208 43.44L95.704 38.16C95.384 37.664 95.096 37.296 94.84 37.056C94.6 36.8 94.344 36.632 94.072 36.552C93.816 36.472 93.488 36.424 93.088 36.408V35.928C93.76 35.912 94.32 35.784 94.768 35.544C95.232 35.288 95.616 34.968 95.92 34.584L98.224 31.656C98.752 30.984 99.112 30.416 99.304 29.952C99.496 29.488 99.488 29.136 99.28 28.896C99.072 28.64 98.632 28.504 97.96 28.488V28.008C98.264 28.024 98.576 28.04 98.896 28.056C99.216 28.056 99.528 28.064 99.832 28.08C100.152 28.08 100.448 28.08 100.72 28.08C101.136 28.08 101.52 28.072 101.872 28.056C102.224 28.04 102.52 28.024 102.76 28.008ZM95.128 28.008V28.488C94.584 28.504 94.168 28.568 93.88 28.68C93.608 28.776 93.424 28.968 93.328 29.256C93.232 29.528 93.184 29.96 93.184 30.552V42.456C93.184 43.032 93.232 43.464 93.328 43.752C93.424 44.04 93.608 44.232 93.88 44.328C94.168 44.424 94.584 44.488 95.128 44.52V45C94.76 44.968 94.296 44.952 93.736 44.952C93.192 44.936 92.64 44.928 92.08 44.928C91.456 44.928 90.872 44.936 90.328 44.952C89.784 44.952 89.344 44.968 89.008 45V44.52C89.552 44.488 89.96 44.424 90.232 44.328C90.52 44.232 90.712 44.04 90.808 43.752C90.904 43.464 90.952 43.032 90.952 42.456V30.552C90.952 29.96 90.904 29.528 90.808 29.256C90.712 28.968 90.52 28.776 90.232 28.68C89.96 28.568 89.552 28.504 89.008 28.488V28.008C89.344 28.024 89.784 28.04 90.328 28.056C90.872 28.072 91.456 28.08 92.08 28.08C92.64 28.08 93.192 28.072 93.736 28.056C94.296 28.04 94.76 28.024 95.128 28.008Z" fill="#F9F9F9"/>
<path d="M8.904 8.672C9.96 8.672 10.824 8.832 11.496 9.152C12.184 9.456 12.792 9.816 13.32 10.232C13.64 10.472 13.88 10.504 14.04 10.328C14.216 10.136 14.336 9.696 14.4 9.008H14.952C14.92 9.6 14.896 10.32 14.88 11.168C14.864 12.016 14.856 13.136 14.856 14.528H14.304C14.192 13.84 14.088 13.296 13.992 12.896C13.896 12.48 13.776 12.128 13.632 11.84C13.504 11.552 13.328 11.264 13.104 10.976C12.608 10.32 11.984 9.848 11.232 9.56C10.48 9.256 9.688 9.104 8.856 9.104C8.072 9.104 7.36 9.304 6.72 9.704C6.096 10.088 5.552 10.648 5.088 11.384C4.64 12.12 4.288 13.008 4.032 14.048C3.792 15.088 3.672 16.256 3.672 17.552C3.672 18.896 3.808 20.088 4.08 21.128C4.352 22.152 4.728 23.016 5.208 23.72C5.704 24.424 6.28 24.96 6.936 25.328C7.608 25.68 8.328 25.856 9.096 25.856C9.816 25.856 10.568 25.712 11.352 25.424C12.136 25.136 12.752 24.672 13.2 24.032C13.552 23.568 13.792 23.064 13.92 22.52C14.064 21.976 14.192 21.216 14.304 20.24H14.856C14.856 21.696 14.864 22.872 14.88 23.768C14.896 24.648 14.92 25.392 14.952 26H14.4C14.336 25.312 14.224 24.88 14.064 24.704C13.92 24.528 13.672 24.552 13.32 24.776C12.728 25.192 12.096 25.56 11.424 25.88C10.768 26.184 9.92 26.336 8.88 26.336C7.36 26.336 6.024 25.992 4.872 25.304C3.736 24.616 2.848 23.624 2.208 22.328C1.584 21.032 1.272 19.472 1.272 17.648C1.272 15.856 1.6 14.288 2.256 12.944C2.912 11.6 3.808 10.552 4.944 9.8C6.096 9.048 7.416 8.672 8.904 8.672Z" fill="#F9F9F9"/>
<path d="M102.76 9.008V9.488C102.264 9.552 101.784 9.712 101.32 9.968C100.856 10.224 100.392 10.648 99.928 11.24L95.296 17.168L95.824 15.992L101.584 24.056C101.856 24.456 102.152 24.768 102.472 24.992C102.792 25.216 103.2 25.392 103.696 25.52V26C103.312 25.968 102.832 25.952 102.256 25.952C101.696 25.936 101.216 25.928 100.816 25.928C100.544 25.928 100.208 25.936 99.808 25.952C99.424 25.952 98.936 25.968 98.344 26V25.52C98.888 25.488 99.232 25.392 99.376 25.232C99.52 25.072 99.464 24.808 99.208 24.44L95.704 19.16C95.384 18.664 95.096 18.296 94.84 18.056C94.6 17.8 94.344 17.632 94.072 17.552C93.816 17.472 93.488 17.424 93.088 17.408V16.928C93.76 16.912 94.32 16.784 94.768 16.544C95.232 16.288 95.616 15.968 95.92 15.584L98.224 12.656C98.752 11.984 99.112 11.416 99.304 10.952C99.496 10.488 99.488 10.136 99.28 9.896C99.072 9.64 98.632 9.504 97.96 9.488V9.008C98.264 9.024 98.576 9.04 98.896 9.056C99.216 9.056 99.528 9.064 99.832 9.08C100.152 9.08 100.448 9.08 100.72 9.08C101.136 9.08 101.52 9.072 101.872 9.056C102.224 9.04 102.52 9.024 102.76 9.008ZM95.128 9.008V9.488C94.584 9.504 94.168 9.568 93.88 9.68C93.608 9.776 93.424 9.968 93.328 10.256C93.232 10.528 93.184 10.96 93.184 11.552V23.456C93.184 24.032 93.232 24.464 93.328 24.752C93.424 25.04 93.608 25.232 93.88 25.328C94.168 25.424 94.584 25.488 95.128 25.52V26C94.76 25.968 94.296 25.952 93.736 25.952C93.192 25.936 92.64 25.928 92.08 25.928C91.456 25.928 90.872 25.936 90.328 25.952C89.784 25.952 89.344 25.968 89.008 26V25.52C89.552 25.488 89.96 25.424 90.232 25.328C90.52 25.232 90.712 25.04 90.808 24.752C90.904 24.464 90.952 24.032 90.952 23.456V11.552C90.952 10.96 90.904 10.528 90.808 10.256C90.712 9.968 90.52 9.776 90.232 9.68C89.96 9.568 89.552 9.504 89.008 9.488V9.008C89.344 9.024 89.784 9.04 90.328 9.056C90.872 9.072 91.456 9.08 92.08 9.08C92.64 9.08 93.192 9.072 93.736 9.056C94.296 9.04 94.76 9.024 95.128 9.008Z" fill="#F9F9F9"/>
<circle cx="36.5" cy="19.5" r="5.5" fill="#FFC700"/>
<circle cx="66.5" cy="34.5" r="5.5" fill="#FFC700"/>
</svg>
